<?xml version="1.0" encoding="iso-8859-1"?>
<!-- Generator: Adobe Illustrator 19.0.0, SVG Export Plug-In . SVG Version: 6.00 Build 0)  -->
<svg version="1.1" id="Capa_1" xmlns="http://www.w3.org/2000/svg" xmlns:xlink="http://www.w3.org/1999/xlink" x="0px" y="0px"
	 viewBox="0 0 512 512" style="enable-background:new 0 0 512 512;" xml:space="preserve">
<g>
	<g>
		
			<rect x="21.508" y="238.654" transform="matrix(0.7077 -0.7065 0.7065 0.7077 -106.0068 255.2104)" width="467.85" height="34.133"/>
	</g>
</g>
<g>
	<g>
		
			<rect x="238.367" y="21.801" transform="matrix(0.7065 -0.7077 0.7077 0.7065 -106.0111 255.8257)" width="34.133" height="467.85"/>
	</g>
</g>
<g>
	<g>
		<path d="M308.787,312.769c-47.024,47.019-69.541,111.866-61.77,177.903l33.894-3.988c-6.542-55.592,12.419-110.188,52.008-149.783
			c41.045-41.045,99.573-60.092,156.461-50.967l5.41-33.701C427.099,241.368,357.552,264.004,308.787,312.769z"/>
	</g>
</g>
<g>
	<g>
		<path d="M247.415,20.958l-34.042,2.458c3.777,52.378-15.565,103.93-53.157,141.523c-36.966,37.461-87.068,56.269-140.971,52.975
			l-2.088,34.071c4.79,0.296,9.54,0.438,14.273,0.438c58.465,0,112.384-22.255,153.003-63.431
			C228.955,144.469,251.91,83.223,247.415,20.958z"/>
	</g>
</g>
<g>
	<g>
		<path d="M256,0C114.842,0,0,114.842,0,256s114.842,256,256,256s256-114.842,256-256S397.158,0,256,0z M256,477.867
			C133.66,477.867,34.133,378.34,34.133,256S133.66,34.133,256,34.133S477.867,133.66,477.867,256S378.34,477.867,256,477.867z"/>
	</g>
</g>
<g>
</g>
<g>
</g>
<g>
</g>
<g>
</g>
<g>
</g>
<g>
</g>
<g>
</g>
<g>
</g>
<g>
</g>
<g>
</g>
<g>
</g>
<g>
</g>
<g>
</g>
<g>
</g>
<g>
</g>
</svg>
