<svg width="130" height="129" viewBox="0 0 130 129" fill="none" xmlns="http://www.w3.org/2000/svg">
<rect width="130" height="129" rx="40" fill="#FFEDF0"/>
<g clip-path="url(#clip0)">
<path d="M88.9195 67.6114C88.4497 67.6114 88.0689 67.9922 88.0689 68.4621V74.4142C88.0689 75.4647 87.2142 76.3194 86.1638 76.3194H41.0954C40.045 76.3194 39.1904 75.4647 39.1904 74.4142V43.1585C39.1904 42.108 40.045 41.2534 41.0954 41.2534H59.9322C60.402 41.2534 60.7829 40.8726 60.7829 40.4027C60.7829 39.9328 60.402 39.552 59.9322 39.552H41.0954C39.1069 39.552 37.489 41.1699 37.489 43.1585V74.4142C37.489 76.4029 39.1069 78.0207 41.0954 78.0207H47.7039V83.0961C47.7039 84.4235 48.7838 85.5034 50.1112 85.5034H52.5825C53.4624 85.5034 54.1782 84.7875 54.1782 83.9076V83.9056H60.8063V93.1495C60.8063 93.6194 61.1872 94.0001 61.657 94.0001C62.1268 94.0001 62.5077 93.6194 62.5077 93.1495V83.9055H67.3932V93.1494C67.3932 93.6193 67.774 94 68.2438 94C68.7136 94 69.0945 93.6193 69.0945 93.1494V83.9055H75.7226V83.9075C75.7226 84.7875 76.4386 85.5033 77.3184 85.5033H79.7898C81.1171 85.5033 82.197 84.4234 82.197 83.096V78.0206H86.1638C88.1523 78.0206 89.7702 76.4028 89.7702 74.4141V68.462C89.7702 67.9923 89.3893 67.6114 88.9195 67.6114ZM52.477 83.8019H50.1112C49.7219 83.8019 49.4053 83.4852 49.4053 83.096V78.0206H52.477V83.0548V83.8019ZM54.1783 82.2041V78.0206H75.7227V82.2041H54.1783ZM80.4958 83.0961C80.4958 83.4854 80.1791 83.802 79.7899 83.802H77.4241V83.0549V78.0207H80.4958V83.0961Z" fill="#272727"/>
<path d="M57.2983 62.8205V49.0916C57.2983 48.0306 56.435 47.1672 55.3739 47.1672H49.2248C48.755 47.1672 48.3741 47.548 48.3741 48.0179C48.3741 48.4878 48.755 48.8686 49.2248 48.8686H55.3739C55.4969 48.8686 55.5969 48.9686 55.5969 49.0916V62.8205C55.5969 62.9436 55.4969 63.0437 55.3739 63.0437H42.8161C42.6931 63.0437 42.5931 62.9436 42.5931 62.8205V49.0916C42.5931 48.9686 42.6931 48.8686 42.8161 48.8686H45.5996C46.0694 48.8686 46.4503 48.4878 46.4503 48.0179C46.4503 47.548 46.0694 47.1672 45.5996 47.1672H42.8161C41.755 47.1672 40.8917 48.0305 40.8917 49.0916V62.8205C40.8917 63.8816 41.755 64.745 42.8161 64.745H55.3739C56.4351 64.745 57.2983 63.8816 57.2983 62.8205Z" fill="#272727"/>
<path d="M87.4127 36H67.5494C64.7382 36 62.4511 38.2871 62.4511 41.0983V60.9616C62.4511 63.7728 64.7382 66.0599 67.5494 66.0599H82.2139C82.6837 66.0599 83.0645 65.6791 83.0645 65.2092C83.0645 64.7393 82.6837 64.3585 82.2139 64.3585H67.5494C65.6763 64.3585 64.1525 62.8346 64.1525 60.9616V41.0983C64.1525 39.2252 65.6763 37.7013 67.5494 37.7013H87.4127C89.2858 37.7013 90.8096 39.2253 90.8096 41.0983V60.9616C90.8096 62.8347 89.2858 64.3585 87.4127 64.3585H85.8391C85.3693 64.3585 84.9884 64.7393 84.9884 65.2092C84.9884 65.6791 85.3693 66.0599 85.8391 66.0599H87.4127C90.2239 66.0599 92.511 63.7728 92.511 60.9616V41.0983C92.511 38.2871 90.2239 36 87.4127 36V36Z" fill="#272727"/>
<path d="M81.8592 39.4027H67.5494C66.6144 39.4027 65.8538 40.1633 65.8538 41.0983V60.9616C65.8538 61.8966 66.6144 62.6572 67.5494 62.6572H87.4127C88.3477 62.6572 89.1084 61.8966 89.1084 60.9616V41.0983C89.1084 40.1633 88.3477 39.4027 87.4127 39.4027H85.4844C85.0146 39.4027 84.6338 39.7835 84.6338 40.2534C84.6338 40.7233 85.0146 41.1041 85.4844 41.1041L87.4071 41.0983L87.4127 60.9559L67.5552 60.9616L67.5494 41.1041H81.8592C82.329 41.1041 82.7099 40.7233 82.7099 40.2534C82.7099 39.7835 82.329 39.4027 81.8592 39.4027Z" fill="#272727"/>
<path d="M68.874 51.03C68.874 55.776 72.7352 59.6371 77.481 59.6371C82.2269 59.6371 86.088 55.776 86.088 51.03C86.088 46.284 82.2269 42.423 77.481 42.423C72.7352 42.423 68.874 46.284 68.874 51.03ZM84.3868 51.03C84.3868 54.8378 81.2889 57.9358 77.4811 57.9358C73.6734 57.9358 70.5755 54.8378 70.5755 51.03C70.5755 47.2223 73.6734 44.1243 77.4811 44.1243C81.2889 44.1243 84.3868 47.2221 84.3868 51.03Z" fill="#272727"/>
<path d="M73.1504 51.03C73.1504 53.418 75.0931 55.3607 77.481 55.3607C79.8689 55.3607 81.8117 53.418 81.8117 51.03C81.8117 48.6421 79.869 46.6993 77.481 46.6993C75.093 46.6993 73.1504 48.6421 73.1504 51.03ZM80.1104 51.03C80.1104 52.4797 78.9309 53.6593 77.481 53.6593C76.0311 53.6593 74.8517 52.4798 74.8517 51.03C74.8517 49.5801 76.0312 48.4007 77.481 48.4007C78.9308 48.4007 80.1104 49.5801 80.1104 51.03Z" fill="#272727"/>
<path d="M46.6831 67.729C45.6166 67.729 44.7489 68.5966 44.7489 69.6632V72.4009C44.7489 73.4674 45.6166 74.3352 46.6831 74.3352H49.4208C50.4873 74.3352 51.355 73.4675 51.355 72.4009V69.6632C51.355 68.5967 50.4873 67.729 49.4208 67.729H46.6831ZM49.6537 69.6632V72.4009C49.6537 72.5294 49.5492 72.6339 49.4208 72.6339H46.6831C46.5547 72.6339 46.4502 72.5294 46.4502 72.4009V69.6632C46.4502 69.5348 46.5547 69.4304 46.6831 69.4304H49.4208C49.5492 69.4304 49.6537 69.5348 49.6537 69.6632Z" fill="#272727"/>
<path d="M54.6364 70.1814C54.1666 70.1814 53.7858 70.5622 53.7858 71.0321C53.7858 71.502 54.1666 71.8827 54.6364 71.8827H82.8076C83.2774 71.8827 83.6583 71.502 83.6583 71.0321C83.6583 70.5622 83.2774 70.1814 82.8076 70.1814H54.6364Z" fill="#272727"/>
</g>
<defs>
<clipPath id="clip0">
<rect width="58" height="58" fill="white" transform="translate(36 36)"/>
</clipPath>
</defs>
</svg>
