<svg width="117" height="29" viewBox="0 0 117 29" fill="none" xmlns="http://www.w3.org/2000/svg">
<rect y="4" width="28" height="22" fill="#EE8A9C"/>
<rect x="28" y="4" width="21" height="22" fill="#FFCA7B"/>
<path d="M9.456 23.288C7.056 23.288 5.184 22.624 3.84 21.296C2.512 19.968 1.848 18.072 1.848 15.608V6.2H5.736V15.464C5.736 18.472 6.984 19.976 9.48 19.976C10.696 19.976 11.624 19.616 12.264 18.896C12.904 18.16 13.224 17.016 13.224 15.464V6.2H17.064V15.608C17.064 18.072 16.392 19.968 15.048 21.296C13.72 22.624 11.856 23.288 9.456 23.288ZM22.8261 6.2H26.7141V23H22.8261V6.2ZM43.2051 23L39.1491 17.168L35.1651 23H30.7011L36.9171 14.456L31.0131 6.2H35.4291L39.2931 11.648L43.0851 6.2H47.2851L41.4291 14.312L47.6931 23H43.2051Z" fill="white"/>
<path d="M62.9539 18.512H53.5939L51.5779 23H49.7299L57.4099 6.2H59.1619L66.8419 23H64.9699L62.9539 18.512ZM62.3059 17.072L58.2739 8.048L54.2419 17.072H62.3059ZM71.181 5.192H72.885V23H71.181V5.192ZM90.1543 10.376L84.5383 23H82.7863L77.1943 10.376H78.9703L83.6983 21.128L88.4743 10.376H90.1543ZM94.4741 10.376H96.1781V23H94.4741V10.376ZM95.3381 7.616C94.9861 7.616 94.6901 7.496 94.4501 7.256C94.2101 7.016 94.0901 6.728 94.0901 6.392C94.0901 6.072 94.2101 5.792 94.4501 5.552C94.6901 5.312 94.9861 5.192 95.3381 5.192C95.6901 5.192 95.9861 5.312 96.2261 5.552C96.4661 5.776 96.5861 6.048 96.5861 6.368C96.5861 6.72 96.4661 7.016 96.2261 7.256C95.9861 7.496 95.6901 7.616 95.3381 7.616ZM109.271 10.28C110.855 10.28 112.111 10.744 113.039 11.672C113.983 12.584 114.455 13.92 114.455 15.68V23H112.751V15.848C112.751 14.536 112.423 13.536 111.767 12.848C111.111 12.16 110.175 11.816 108.959 11.816C107.599 11.816 106.519 12.224 105.719 13.04C104.935 13.84 104.543 14.952 104.543 16.376V23H102.839V10.376H104.471V12.704C104.935 11.936 105.575 11.344 106.391 10.928C107.223 10.496 108.183 10.28 109.271 10.28Z" fill="#272727"/>
</svg>
