<svg width="130" height="129" viewBox="0 0 130 129" fill="none" xmlns="http://www.w3.org/2000/svg">
<rect width="130" height="129" rx="40" fill="#EEF7FF"/>
<path d="M87.9375 76.1562H86.7344V64.125H84.3281V76.1562H43.4218L43.4204 52.0938L43.4219 52.0938V49.6875C42.7839 49.6882 42.1723 49.942 41.7212 50.3931C41.2701 50.8442 41.0164 51.4558 41.0156 52.0938V76.1562H39.8125V52.0938C39.8136 51.1368 40.1942 50.2194 40.8709 49.5427C41.5475 48.8661 42.4649 48.4855 43.4219 48.4844V46.0781C41.827 46.0799 40.2979 46.7143 39.1702 47.8421C38.0424 48.9698 37.4081 50.4989 37.4062 52.0938V77.3594C37.4081 78.9543 38.0424 80.4833 39.1702 81.6111C40.2979 82.7388 41.827 83.3732 43.4219 83.375H59.0625V84.5781C59.0614 85.5351 58.6808 86.4525 58.0041 87.1291C57.3275 87.8058 56.4101 88.1864 55.4531 88.1875C55.134 88.1875 54.828 88.3143 54.6024 88.5399C54.3768 88.7655 54.25 89.0715 54.25 89.3906C54.25 89.7097 54.3768 90.0157 54.6024 90.2414C54.828 90.467 55.134 90.5938 55.4531 90.5938H72.2969C72.616 90.5938 72.922 90.467 73.1476 90.2414C73.3732 90.0157 73.5 89.7097 73.5 89.3906C73.5 89.0715 73.3732 88.7655 73.1476 88.5399C72.922 88.3143 72.616 88.1875 72.2969 88.1875C71.3399 88.1864 70.4225 87.8058 69.7459 87.1291C69.0692 86.4525 68.6886 85.5351 68.6875 84.5781V83.375H84.3281C85.923 83.3732 87.4521 82.7388 88.5798 81.6111C89.7076 80.4833 90.3419 78.9543 90.3438 77.3594V64.125H87.9375V76.1562ZM67.4872 88.1875H60.2628C61.0468 87.1476 61.4701 85.8804 61.4688 84.5781V83.375H66.2812V84.5781C66.2799 85.8804 66.7032 87.1476 67.4872 88.1875ZM84.3281 80.9688H43.4219C42.6758 80.9678 41.9482 80.736 41.3391 80.3052C40.7299 79.8744 40.269 79.2657 40.0195 78.5625H87.7306C87.4811 79.2657 87.0201 79.8744 86.4109 80.3052C85.8018 80.736 85.0742 80.9678 84.3281 80.9688Z" fill="#272727"/>
<path d="M105.984 18.4062H74.7031C73.7462 18.4073 72.8288 18.788 72.1521 19.4646C71.4755 20.1413 71.0948 21.0587 71.0938 22.0156V48.4844C71.0948 49.4413 71.4755 50.3587 72.1521 51.0354C72.8288 51.712 73.7462 52.0927 74.7031 52.0938H105.984C106.941 52.0927 107.859 51.712 108.535 51.0354C109.212 50.3587 109.593 49.4413 109.594 48.4844V22.0156C109.593 21.0587 109.212 20.1413 108.535 19.4646C107.859 18.788 106.941 18.4073 105.984 18.4062ZM107.188 48.4844C107.187 48.8034 107.06 49.1092 106.835 49.3347C106.609 49.5603 106.303 49.6871 105.984 49.6875H74.7031C74.3841 49.6871 74.0783 49.5603 73.8528 49.3347C73.6272 49.1092 73.5004 48.8034 73.5 48.4844V22.0156C73.5004 21.6966 73.6272 21.3908 73.8528 21.1653C74.0783 20.9397 74.3841 20.8129 74.7031 20.8125H105.984C106.303 20.8129 106.609 20.9397 106.835 21.1653C107.06 21.3908 107.187 21.6966 107.188 22.0156V48.4844Z" fill="#272727"/>
<path d="M75.9062 25.625H104.781V28.0312H75.9062V25.625Z" fill="#272727"/>
<path d="M77.1094 24.4219C77.7738 24.4219 78.3125 23.8832 78.3125 23.2188C78.3125 22.5543 77.7738 22.0156 77.1094 22.0156C76.4449 22.0156 75.9062 22.5543 75.9062 23.2188C75.9062 23.8832 76.4449 24.4219 77.1094 24.4219Z" fill="#272727"/>
<path d="M80.7188 24.4219C81.3832 24.4219 81.9219 23.8832 81.9219 23.2188C81.9219 22.5543 81.3832 22.0156 80.7188 22.0156C80.0543 22.0156 79.5156 22.5543 79.5156 23.2188C79.5156 23.8832 80.0543 24.4219 80.7188 24.4219Z" fill="#272727"/>
<path d="M84.3281 24.4219C84.9926 24.4219 85.5312 23.8832 85.5312 23.2188C85.5312 22.5543 84.9926 22.0156 84.3281 22.0156C83.6637 22.0156 83.125 22.5543 83.125 23.2188C83.125 23.8832 83.6637 24.4219 84.3281 24.4219Z" fill="#272727"/>
<path d="M87.9375 30.4375H77.1094C76.7903 30.4375 76.4843 30.5643 76.2586 30.7899C76.033 31.0155 75.9063 31.3215 75.9062 31.6406V42.4688C75.9063 42.7878 76.033 43.0939 76.2586 43.3195C76.4843 43.5451 76.7903 43.6719 77.1094 43.6719H87.9375C88.2566 43.6719 88.5626 43.5451 88.7882 43.3195C89.0139 43.0939 89.1406 42.7878 89.1406 42.4688V31.6406C89.1406 31.3215 89.0139 31.0155 88.7882 30.7899C88.5626 30.5643 88.2566 30.4375 87.9375 30.4375ZM86.7344 41.2656H78.3125V32.8438H86.7344V41.2656Z" fill="#272727"/>
<path d="M103.578 30.4375H92.75C92.4309 30.4375 92.1249 30.5643 91.8993 30.7899C91.6736 31.0155 91.5469 31.3215 91.5469 31.6406V42.4688C91.5469 42.7878 91.6736 43.0939 91.8993 43.3195C92.1249 43.5451 92.4309 43.6719 92.75 43.6719H103.578C103.897 43.6719 104.203 43.5451 104.429 43.3195C104.654 43.0939 104.781 42.7878 104.781 42.4688V31.6406C104.781 31.3215 104.654 31.0155 104.429 30.7899C104.203 30.5643 103.897 30.4375 103.578 30.4375ZM102.375 41.2656H93.9531V32.8438H102.375V41.2656Z" fill="#272727"/>
<path d="M78.3125 44.875H83.125V47.2812H78.3125V44.875Z" fill="#272727"/>
<path d="M84.3281 44.875H86.7344V47.2812H84.3281V44.875Z" fill="#272727"/>
<path d="M93.9531 44.875H98.7656V47.2812H93.9531V44.875Z" fill="#272727"/>
<path d="M99.9688 44.875H102.375V47.2812H99.9688V44.875Z" fill="#272727"/>
<path d="M93.9531 58.1094C93.9528 58.4284 93.8259 58.7342 93.6003 58.9597C93.3748 59.1853 93.069 59.3121 92.75 59.3125H61.4688C61.1498 59.3121 60.844 59.1853 60.6184 58.9597C60.3929 58.7342 60.266 58.4284 60.2656 58.1094V31.6406C60.266 31.3216 60.3929 31.0158 60.6184 30.7903C60.844 30.5647 61.1498 30.4379 61.4688 30.4375H68.6875V28.0312H61.4688C60.5118 28.0323 59.5944 28.413 58.9177 29.0896C58.2411 29.7663 57.8605 30.6837 57.8594 31.6406V58.1094C57.8605 59.0663 58.2411 59.9837 58.9177 60.6604C59.5944 61.337 60.5118 61.7177 61.4688 61.7188H92.75C93.7069 61.7177 94.6244 61.337 95.301 60.6604C95.9777 59.9837 96.3583 59.0663 96.3594 58.1094V54.5H93.9531V58.1094Z" fill="#272727"/>
<path d="M62.6719 35.25H68.6875V37.6562H62.6719V35.25Z" fill="#272727"/>
<path d="M63.875 34.0469C64.5395 34.0469 65.0781 33.5082 65.0781 32.8438C65.0781 32.1793 64.5395 31.6406 63.875 31.6406C63.2105 31.6406 62.6719 32.1793 62.6719 32.8438C62.6719 33.5082 63.2105 34.0469 63.875 34.0469Z" fill="#272727"/>
<path d="M67.4844 34.0469C68.1488 34.0469 68.6875 33.5082 68.6875 32.8438C68.6875 32.1793 68.1488 31.6406 67.4844 31.6406C66.8199 31.6406 66.2812 32.1793 66.2812 32.8438C66.2812 33.5082 66.8199 34.0469 67.4844 34.0469Z" fill="#272727"/>
<path d="M48.2344 73.75H79.5156C80.4726 73.7489 81.39 73.3683 82.0666 72.6916C82.7433 72.015 83.1239 71.0976 83.125 70.1406V64.125H80.7188V70.1406C80.7184 70.4596 80.5915 70.7654 80.366 70.991C80.1404 71.2165 79.8346 71.3434 79.5156 71.3438H48.2344C47.9154 71.3434 47.6096 71.2165 47.384 70.991C47.1585 70.7654 47.0316 70.4596 47.0312 70.1406V43.6719C47.0316 43.3529 47.1585 43.0471 47.384 42.8215C47.6096 42.596 47.9154 42.4691 48.2344 42.4688H55.4531V40.0625H48.2344C47.2774 40.0636 46.36 40.4442 45.6834 41.1209C45.0067 41.7975 44.6261 42.7149 44.625 43.6719V70.1406C44.6261 71.0976 45.0067 72.015 45.6834 72.6916C46.36 73.3683 47.2774 73.7489 48.2344 73.75Z" fill="#272727"/>
<path d="M49.4375 47.2812H55.4531V49.6875H49.4375V47.2812Z" fill="#272727"/>
<path d="M50.6406 46.0781C51.3051 46.0781 51.8438 45.5395 51.8438 44.875C51.8438 44.2105 51.3051 43.6719 50.6406 43.6719C49.9762 43.6719 49.4375 44.2105 49.4375 44.875C49.4375 45.5395 49.9762 46.0781 50.6406 46.0781Z" fill="#272727"/>
<path d="M54.25 46.0781C54.9145 46.0781 55.4531 45.5395 55.4531 44.875C55.4531 44.2105 54.9145 43.6719 54.25 43.6719C53.5855 43.6719 53.0469 44.2105 53.0469 44.875C53.0469 45.5395 53.5855 46.0781 54.25 46.0781Z" fill="#272727"/>
</svg>
