<svg width="129" height="129" viewBox="0 0 129 129" fill="none" xmlns="http://www.w3.org/2000/svg">
<rect width="129" height="129" rx="40" fill="#FFEDF0"/>
<path d="M88.65 35H39.35C36.9517 35 35 36.9854 35 39.425V89.575C35 92.0146 36.9517 94 39.35 94H88.65C91.0483 94 93 92.0146 93 89.575V39.425C93 36.9854 91.0483 35 88.65 35ZM91.0666 89.575C91.0666 90.931 89.983 92.0333 88.65 92.0333H39.35C38.0179 92.0333 36.9334 90.931 36.9334 89.575V39.425C36.9334 38.0689 38.0179 36.9667 39.35 36.9667H88.65C89.9821 36.9667 91.0666 38.069 91.0666 39.425V89.575Z" fill="#272727"/>
<path d="M43.7 38.9333H39.8334C39.2998 38.9333 38.8667 39.3729 38.8667 39.9166V43.8501C38.8667 44.3938 39.2998 44.8334 39.8334 44.8334H43.7C44.2336 44.8334 44.6666 44.3938 44.6666 43.8501V39.9168C44.6666 39.373 44.2336 38.9333 43.7 38.9333ZM42.7334 42.8668H40.8V40.9001H42.7334V42.8668Z" fill="#272727"/>
<path d="M51.4334 38.9333H47.5667C47.0332 38.9333 46.6001 39.3729 46.6001 39.9166V43.8501C46.6001 44.3938 47.0332 44.8334 47.5667 44.8334H51.4334C51.9669 44.8334 52.4 44.3938 52.4 43.8501V39.9168C52.4 39.373 51.9669 38.9333 51.4334 38.9333ZM50.4666 42.8668H48.5333V40.9001H50.4666V42.8668Z" fill="#272727"/>
<path d="M59.1666 38.9333H55.3C54.7664 38.9333 54.3334 39.3729 54.3334 39.9166V43.8501C54.3334 44.3938 54.7664 44.8334 55.3 44.8334H59.1666C59.7002 44.8334 60.1333 44.3938 60.1333 43.8501V39.9168C60.1334 39.373 59.7003 38.9333 59.1666 38.9333ZM58.2 42.8668H56.2666V40.9001H58.2V42.8668Z" fill="#272727"/>
<path d="M88.65 35H39.35C36.9517 35 35 36.9854 35 39.425V47.7833C35 48.3271 35.4331 48.7666 35.9666 48.7666H92.0333C92.5668 48.7666 92.9999 48.3271 92.9999 47.7833V39.425C93 36.9854 91.0483 35 88.65 35ZM91.0666 46.8H36.9334V39.425C36.9334 38.0689 38.0179 36.9667 39.35 36.9667H88.65C89.9821 36.9667 91.0666 38.069 91.0666 39.425V46.8Z" fill="#272727"/>
<path d="M49.2168 53.9715C48.8398 53.587 48.227 53.587 47.85 53.9715L43.9832 57.9048C43.6052 58.2892 43.6052 58.9108 43.9832 59.2952C44.1717 59.487 44.4192 59.5833 44.6666 59.5833C44.9142 59.5833 45.1616 59.487 45.3501 59.2952L49.2168 55.3619C49.5947 54.9774 49.5947 54.3559 49.2168 53.9715Z" fill="#272727"/>
<path d="M53.0834 57.9048L49.2168 53.9715C48.8398 53.587 48.227 53.587 47.85 53.9715C47.4719 54.356 47.4719 54.9775 47.85 55.3619L51.7166 59.2952C51.9051 59.487 52.1526 59.5833 52.4 59.5833C52.6475 59.5833 52.8949 59.487 53.0834 59.2952C53.4615 58.9108 53.4615 58.2893 53.0834 57.9048Z" fill="#272727"/>
<path d="M55.0168 52.0048C54.6398 51.6203 54.027 51.6203 53.65 52.0048L49.7832 55.9381C49.4052 56.3227 49.4052 56.9441 49.7832 57.3286C49.9717 57.5203 50.2192 57.6166 50.4666 57.6166C50.7142 57.6166 50.9616 57.5203 51.1501 57.3286L55.0167 53.3953C55.3947 53.0108 55.3947 52.3894 55.0168 52.0048Z" fill="#272727"/>
<path d="M58.8834 55.9381L55.0168 52.0048C54.6398 51.6203 54.027 51.6203 53.65 52.0048C53.2719 52.3894 53.2719 53.0108 53.65 53.3953L57.5166 57.3286C57.7051 57.5203 57.9526 57.6166 58.2 57.6166C58.4475 57.6166 58.6949 57.5203 58.8834 57.3286C59.2614 56.9441 59.2614 56.3227 58.8834 55.9381Z" fill="#272727"/>
<path d="M58.2 66.4667H42.7334C42.1998 66.4667 41.7667 66.9062 41.7667 67.45C41.7667 67.9938 42.1998 68.4333 42.7334 68.4333H58.2C58.7335 68.4333 59.1666 67.9938 59.1666 67.45C59.1666 66.9062 58.7335 66.4667 58.2 66.4667Z" fill="#272727"/>
<path d="M53.3666 62.5333H42.7334C42.1998 62.5333 41.7667 62.9728 41.7667 63.5166C41.7667 64.0604 42.1997 64.5 42.7334 64.5H53.3667C53.9003 64.5 54.3334 64.0605 54.3334 63.5167C54.3334 62.9729 53.9003 62.5333 53.3666 62.5333Z" fill="#272727"/>
<path d="M76.2834 53.9715C75.9064 53.587 75.2936 53.587 74.9166 53.9715L71.0499 57.9048C70.672 58.2892 70.672 58.9108 71.0499 59.2952C71.2384 59.487 71.486 59.5833 71.7334 59.5833C71.9809 59.5833 72.2283 59.487 72.4168 59.2952L76.2834 55.3619C76.6614 54.9774 76.6614 54.3559 76.2834 53.9715Z" fill="#272727"/>
<path d="M80.1501 57.9048L76.2834 53.9715C75.9064 53.587 75.2936 53.587 74.9166 53.9715C74.5386 54.356 74.5386 54.9775 74.9166 55.3619L78.7832 59.2952C78.9717 59.487 79.2192 59.5833 79.4666 59.5833C79.7141 59.5833 79.9616 59.487 80.1501 59.2952C80.5281 58.9108 80.5281 58.2893 80.1501 57.9048Z" fill="#272727"/>
<path d="M82.0834 52.0048C81.7064 51.6203 81.0936 51.6203 80.7166 52.0048L76.8499 55.9381C76.472 56.3227 76.472 56.9441 76.8499 57.3286C77.0384 57.5203 77.286 57.6166 77.5334 57.6166C77.7809 57.6166 78.0283 57.5203 78.2168 57.3286L82.0834 53.3953C82.4614 53.0108 82.4614 52.3894 82.0834 52.0048Z" fill="#272727"/>
<path d="M85.9501 55.9381L82.0834 52.0048C81.7064 51.6203 81.0936 51.6203 80.7166 52.0048C80.3386 52.3894 80.3386 53.0108 80.7166 53.3953L84.5832 57.3286C84.7717 57.5203 85.0192 57.6166 85.2666 57.6166C85.5142 57.6166 85.7616 57.5203 85.9501 57.3286C86.3281 56.9441 86.3281 56.3227 85.9501 55.9381Z" fill="#272727"/>
<path d="M85.2666 66.4667H69.8C69.2665 66.4667 68.8334 66.9062 68.8334 67.45C68.8334 67.9938 69.2665 68.4333 69.8 68.4333H85.2666C85.8002 68.4333 86.2333 67.9938 86.2333 67.45C86.2334 66.9062 85.8003 66.4667 85.2666 66.4667Z" fill="#272727"/>
<path d="M80.4334 62.5333H69.8C69.2665 62.5333 68.8334 62.9728 68.8334 63.5166C68.8334 64.0604 69.2665 64.5 69.8 64.5H80.4334C80.9669 64.5 81.4 64.0605 81.4 63.5167C81.4 62.9729 80.9669 62.5333 80.4334 62.5333Z" fill="#272727"/>
<path d="M49.2168 74.6215C48.8398 74.237 48.227 74.237 47.85 74.6215L43.9832 78.5548C43.6052 78.9394 43.6052 79.5608 43.9832 79.9453C44.1717 80.137 44.4192 80.2333 44.6666 80.2333C44.9142 80.2333 45.1616 80.137 45.3501 79.9453L49.2168 76.012C49.5947 75.6274 49.5947 75.006 49.2168 74.6215Z" fill="#272727"/>
<path d="M53.0834 78.5548L49.2168 74.6215C48.8398 74.237 48.227 74.237 47.85 74.6215C47.4719 75.0061 47.4719 75.6275 47.85 76.012L51.7166 79.9453C51.9051 80.137 52.1526 80.2333 52.4 80.2333C52.6475 80.2333 52.8949 80.137 53.0834 79.9453C53.4615 79.5608 53.4615 78.9393 53.0834 78.5548Z" fill="#272727"/>
<path d="M55.0168 72.6547C54.6398 72.2702 54.027 72.2702 53.65 72.6547L49.7832 76.588C49.4052 76.9726 49.4052 77.594 49.7832 77.9785C49.9717 78.1702 50.2192 78.2665 50.4666 78.2665C50.7142 78.2665 50.9616 78.1702 51.1501 77.9785L55.0167 74.0452C55.3947 73.6607 55.3947 73.0392 55.0168 72.6547Z" fill="#272727"/>
<path d="M58.8834 76.588L55.0168 72.6547C54.6398 72.2702 54.027 72.2702 53.65 72.6547C53.2719 73.0393 53.2719 73.6607 53.65 74.0452L57.5166 77.9785C57.7051 78.1702 57.9526 78.2665 58.2 78.2665C58.4475 78.2665 58.6949 78.1702 58.8834 77.9785C59.2614 77.594 59.2614 76.9726 58.8834 76.588Z" fill="#272727"/>
<path d="M58.2 87.1167H42.7334C42.1998 87.1167 41.7667 87.5562 41.7667 88.1C41.7667 88.6438 42.1998 89.0833 42.7334 89.0833H58.2C58.7335 89.0833 59.1666 88.6438 59.1666 88.1C59.1666 87.5562 58.7335 87.1167 58.2 87.1167Z" fill="#272727"/>
<path d="M53.3666 83.1832H42.7334C42.1998 83.1832 41.7667 83.6227 41.7667 84.1665C41.7667 84.7103 42.1998 85.1498 42.7334 85.1498H53.3667C53.9003 85.1498 54.3334 84.7103 54.3334 84.1665C54.3334 83.6227 53.9003 83.1832 53.3666 83.1832Z" fill="#272727"/>
<path d="M76.2834 74.6215C75.9064 74.237 75.2936 74.237 74.9166 74.6215L71.0499 78.5548C70.672 78.9394 70.672 79.5608 71.0499 79.9453C71.2384 80.137 71.486 80.2333 71.7334 80.2333C71.9809 80.2333 72.2283 80.137 72.4168 79.9453L76.2834 76.012C76.6614 75.6274 76.6614 75.006 76.2834 74.6215Z" fill="#272727"/>
<path d="M80.1501 78.5548L76.2834 74.6215C75.9064 74.237 75.2936 74.237 74.9166 74.6215C74.5386 75.0061 74.5386 75.6275 74.9166 76.012L78.7832 79.9453C78.9717 80.137 79.2192 80.2333 79.4666 80.2333C79.7141 80.2333 79.9616 80.137 80.1501 79.9453C80.5281 79.5608 80.5281 78.9393 80.1501 78.5548Z" fill="#272727"/>
<path d="M82.0834 72.6547C81.7064 72.2702 81.0936 72.2702 80.7166 72.6547L76.8499 76.588C76.472 76.9726 76.472 77.594 76.8499 77.9785C77.0384 78.1702 77.286 78.2665 77.5334 78.2665C77.7809 78.2665 78.0283 78.1702 78.2168 77.9785L82.0834 74.0452C82.4614 73.6607 82.4614 73.0392 82.0834 72.6547Z" fill="#272727"/>
<path d="M85.9501 76.588L82.0834 72.6547C81.7064 72.2702 81.0936 72.2702 80.7166 72.6547C80.3386 73.0393 80.3386 73.6607 80.7166 74.0452L84.5832 77.9785C84.7717 78.1702 85.0192 78.2665 85.2666 78.2665C85.5142 78.2665 85.7616 78.1702 85.9501 77.9785C86.3281 77.594 86.3281 76.9726 85.9501 76.588Z" fill="#272727"/>
<path d="M85.2666 87.1167H69.8C69.2665 87.1167 68.8334 87.5562 68.8334 88.1C68.8334 88.6438 69.2665 89.0833 69.8 89.0833H85.2666C85.8002 89.0833 86.2333 88.6438 86.2333 88.1C86.2334 87.5562 85.8003 87.1167 85.2666 87.1167Z" fill="#272727"/>
<path d="M80.4334 83.1832H69.8C69.2665 83.1832 68.8334 83.6227 68.8334 84.1665C68.8334 84.7103 69.2665 85.1498 69.8 85.1498H80.4334C80.9669 85.1498 81.4 84.7103 81.4 84.1665C81.4 83.6227 80.9669 83.1832 80.4334 83.1832Z" fill="#272727"/>
</svg>
