<svg width="734" height="630" viewBox="0 0 734 630" fill="none" xmlns="http://www.w3.org/2000/svg">
<path d="M113.472 282.456C84.672 282.456 62.208 274.488 46.08 258.552C30.144 242.616 22.176 219.864 22.176 190.296V77.4H68.832V188.568C68.832 224.664 83.808 242.712 113.76 242.712C128.352 242.712 139.488 238.392 147.168 229.752C154.848 220.92 158.688 207.192 158.688 188.568V77.4H204.768V190.296C204.768 219.864 196.704 242.616 180.576 258.552C164.64 274.488 142.272 282.456 113.472 282.456ZM250.873 77.4H297.529V279H250.873V77.4Z" fill="white"/>
<path d="M417.472 561.456C388.672 561.456 366.208 553.488 350.08 537.552C334.144 521.616 326.176 498.864 326.176 469.296V356.4H372.832V467.568C372.832 503.664 387.808 521.712 417.76 521.712C432.352 521.712 443.488 517.392 451.168 508.752C458.848 499.92 462.688 486.192 462.688 467.568V356.4H508.768V469.296C508.768 498.864 500.704 521.616 484.576 537.552C468.64 553.488 446.272 561.456 417.472 561.456ZM679.068 558L630.396 488.016L582.588 558H529.02L603.612 455.472L532.764 356.4H585.756L632.124 421.776L677.628 356.4H728.028L657.756 453.744L732.924 558H679.068Z" fill="white"/>
</svg>
