<svg width="130" height="129" viewBox="0 0 130 129" fill="none" xmlns="http://www.w3.org/2000/svg">
<rect width="130" height="129" rx="40" fill="#EEF7FF"/>
<path d="M80.4666 51.4333H49.5334C48.9998 51.4333 48.5667 51.8654 48.5667 52.4V87.2C48.5667 87.7345 48.9998 88.1666 49.5334 88.1666H80.4667C81.0003 88.1666 81.4334 87.7345 81.4334 87.2V52.4C81.4334 51.8654 81.0003 51.4333 80.4666 51.4333ZM79.5 86.2333H50.5V53.3666H79.5V86.2333Z" fill="#272727"/>
<path d="M89.65 35H40.35C37.9517 35 36 36.9517 36 39.35V88.65C36 91.0483 37.9517 93 40.35 93H89.65C92.0483 93 94 91.0483 94 88.65V39.35C94 36.9517 92.0483 35 89.65 35ZM92.0666 88.65C92.0666 89.983 90.983 91.0666 89.65 91.0666H40.35C39.0179 91.0666 37.9334 89.983 37.9334 88.65V39.35C37.9334 38.0169 39.0179 36.9334 40.35 36.9334H89.65C90.9821 36.9334 92.0666 38.017 92.0666 39.35V88.65Z" fill="#272727"/>
<path d="M44.7 38.8666H40.8334C40.2998 38.8666 39.8667 39.2986 39.8667 39.8332V43.7C39.8667 44.2345 40.2998 44.6666 40.8334 44.6666H44.7C45.2336 44.6666 45.6666 44.2345 45.6666 43.7V39.8333C45.6666 39.2987 45.2336 38.8666 44.7 38.8666ZM43.7334 42.7333H41.8V40.7999H43.7334V42.7333Z" fill="#272727"/>
<path d="M52.4334 38.8666H48.5667C48.0332 38.8666 47.6001 39.2986 47.6001 39.8332V43.7C47.6001 44.2345 48.0332 44.6666 48.5667 44.6666H52.4334C52.9669 44.6666 53.4 44.2345 53.4 43.7V39.8333C53.4 39.2987 52.9669 38.8666 52.4334 38.8666ZM51.4666 42.7333H49.5333V40.7999H51.4666V42.7333Z" fill="#272727"/>
<path d="M60.1666 38.8666H56.3C55.7664 38.8666 55.3334 39.2986 55.3334 39.8332V43.7C55.3334 44.2345 55.7664 44.6666 56.3 44.6666H60.1666C60.7002 44.6666 61.1333 44.2345 61.1333 43.7V39.8333C61.1334 39.2987 60.7003 38.8666 60.1666 38.8666ZM59.2 42.7333H57.2666V40.7999H59.2V42.7333Z" fill="#272727"/>
<path d="M89.65 35H40.35C37.9517 35 36 36.9517 36 39.35V47.5666C36 48.1012 36.4331 48.5333 36.9666 48.5333H93.0333C93.5668 48.5333 93.9999 48.1012 93.9999 47.5666V39.35C94 36.9517 92.0483 35 89.65 35ZM92.0666 46.6H37.9334V39.35C37.9334 38.0169 39.0179 36.9334 40.35 36.9334H89.65C90.9821 36.9334 92.0666 38.017 92.0666 39.35V46.6Z" fill="#272727"/>
<path d="M45.6666 53.3666H36.9666C36.4331 53.3666 36 53.7986 36 54.3332V85.2666C36 85.8011 36.4331 86.2332 36.9666 86.2332H45.6666C46.2002 86.2332 46.6333 85.8011 46.6333 85.2666V54.3333C46.6334 53.7987 46.2003 53.3666 45.6666 53.3666ZM44.7 84.2999H37.9334V55.2999H44.7V84.2999Z" fill="#272727"/>
<path d="M93.0334 53.3666H84.3334C83.7998 53.3666 83.3667 53.7986 83.3667 54.3332V85.2666C83.3667 85.8011 83.7998 86.2332 84.3334 86.2332H93.0334C93.5669 86.2332 94 85.8011 94 85.2666V54.3333C94 53.7987 93.5669 53.3666 93.0334 53.3666ZM92.0666 84.2999H85.3V55.2999H92.0666V84.2999Z" fill="#272727"/>
<path d="M70.8 60.1334H59.2C58.6664 60.1334 58.2334 60.5655 58.2334 61.1001V67.8667C58.2334 68.4013 58.6664 68.8333 59.2 68.8333H70.8C71.3336 68.8333 71.7666 68.4013 71.7666 67.8667V61.1001C71.7666 60.5655 71.3336 60.1334 70.8 60.1334ZM69.8334 66.9001H60.1667V62.0667H69.8334V66.9001Z" fill="#272727"/>
<path d="M67.9 55.3H62.1C61.5664 55.3 61.1334 55.7321 61.1334 56.2667V61.1C61.1334 61.6346 61.5664 62.0667 62.1 62.0667H67.9C68.4336 62.0667 68.8666 61.6346 68.8666 61.1V56.2667C68.8666 55.7321 68.4336 55.3 67.9 55.3ZM66.9334 60.1334H63.0667V57.2334H66.9334V60.1334Z" fill="#272727"/>
<path d="M69.8334 70.7666H60.1667C59.6332 70.7666 59.2001 71.1987 59.2001 71.7332C59.2001 72.2678 59.6332 72.6999 60.1667 72.6999H69.8334C70.3669 72.6999 70.8 72.2678 70.8 71.7332C70.8 71.1988 70.3669 70.7666 69.8334 70.7666Z" fill="#272727"/>
<path d="M71.7666 74.6334H58.2334C57.6998 74.6334 57.2667 75.0655 57.2667 75.6001C57.2667 76.1346 57.6998 76.5667 58.2334 76.5667H71.7667C72.3003 76.5667 72.7334 76.1346 72.7334 75.6001C72.7334 75.0655 72.3003 74.6334 71.7666 74.6334Z" fill="#272727"/>
<path d="M71.7666 78.5H58.2334C56.6345 78.5 55.3334 79.8011 55.3334 81.4C55.3334 82.9989 56.6345 84.3 58.2334 84.3H71.7667C73.3656 84.3 74.6667 82.9989 74.6667 81.4C74.6667 79.8011 73.3655 78.5 71.7666 78.5ZM71.7666 82.3666H58.2334C57.7007 82.3666 57.2667 81.9336 57.2667 81.4C57.2667 80.8664 57.7007 80.4334 58.2334 80.4334H71.7667C72.2994 80.4334 72.7334 80.8664 72.7334 81.4C72.7334 81.9336 72.2993 82.3666 71.7666 82.3666Z" fill="#272727"/>
</svg>
