<svg width="130" height="129" viewBox="0 0 130 129" fill="none" xmlns="http://www.w3.org/2000/svg">
<rect width="130" height="129" rx="40" fill="#FFF8E4"/>
<g clip-path="url(#clip0)">
<path d="M91.0415 41.6184H67.2725L65.3639 39.7098C64.9478 39.2939 64.3934 39.0647 63.8027 39.0647C63.2121 39.0647 62.6577 39.2939 62.24 39.7114L62.0636 39.8885C61.3093 39.4827 60.5205 39.1558 59.7044 38.9105V38.6595C59.7044 37.4429 58.7147 36.4531 57.4979 36.4531H54.4863C53.2697 36.4531 52.2799 37.4429 52.2799 38.6595V38.9105C51.4638 39.1558 50.6749 39.4828 49.9207 39.8885L49.7428 39.7098C49.3267 39.2938 48.7723 39.0646 48.1816 39.0646C47.5909 39.0646 47.0365 39.2938 46.6205 39.7097L44.712 41.6184H38.9585C37.3272 41.6184 36 42.9456 36 44.5769V77.9597C36 79.591 37.3272 80.9182 38.9585 80.9182H55.4479L53.1647 85.5471H51.3074C49.1018 85.5471 47.3074 87.3413 47.3074 89.5469V92.4141C47.3074 93.0397 47.8147 93.5469 48.4402 93.5469H76.5582H89.6047C92.0283 93.5469 94 91.3704 94 88.6952V61.6187V44.5769C94 42.9456 92.6728 41.6184 91.0415 41.6184ZM45.669 48.8794C45.9353 47.6997 46.3982 46.5835 47.0447 45.562C47.3277 45.1149 47.2636 44.5316 46.8903 44.1567L46.1355 43.399L48.1816 41.3529L48.933 42.1074C49.3077 42.4835 49.8932 42.5491 50.3416 42.2652C51.3689 41.615 52.4854 41.1524 53.6598 40.8901C54.1775 40.7745 54.5456 40.315 54.5456 39.7845V38.7188H57.4388V39.7845C57.4388 40.315 57.807 40.7745 58.3247 40.8901C59.4991 41.1524 60.6154 41.615 61.6427 42.2652C62.0913 42.5491 62.6767 42.4835 63.0512 42.1074L63.8028 41.3529L65.8489 43.399L65.0941 44.1567C64.7208 44.5316 64.6566 45.1149 64.9396 45.562C65.5861 46.5835 66.049 47.6997 66.3153 48.8794C66.4319 49.396 66.8908 49.7628 67.4204 49.7628H68.4861V52.656H67.4204C66.8908 52.656 66.4319 53.0228 66.3153 53.5393C66.0483 54.7223 65.5854 55.8396 64.9396 56.8599C64.6566 57.307 64.7208 57.8904 65.0941 58.2652L65.8472 59.0214L63.8027 61.066L63.0496 60.3129C62.6748 59.9381 62.0905 59.8733 61.6427 60.1568C60.6156 60.8069 59.4992 61.2696 58.3247 61.5319C57.807 61.6476 57.4388 62.107 57.4388 62.6375V63.7032H54.5456V62.6375C54.5456 62.107 54.1775 61.6476 53.6598 61.5319C52.4853 61.2696 51.3688 60.807 50.3416 60.1568C49.8939 59.8735 49.3096 59.9383 48.9347 60.313L48.1817 61.066L46.1372 59.0214L46.8903 58.2652C47.2636 57.8904 47.3277 57.3071 47.0447 56.8599C46.399 55.8396 45.9361 54.7223 45.669 53.5393C45.5524 53.0228 45.0935 52.656 44.5639 52.656H43.4983V49.7628H44.5641C45.0935 49.7628 45.5524 49.396 45.669 48.8794ZM38.2656 77.9597V75.483H72.163V78.6527H38.9585C38.5765 78.6527 38.2656 78.3418 38.2656 77.9597ZM57.9743 80.9183H72.1631V85.5472H55.6911L57.9743 80.9183ZM49.5731 89.5469C49.5731 88.5907 50.3511 87.8127 51.3075 87.8127H53.8634C53.865 87.8127 53.8667 87.8129 53.8683 87.8129C53.8697 87.8129 53.8709 87.8127 53.8723 87.8127H72.163V88.6952C72.163 89.6454 72.4128 90.532 72.8421 91.2812H49.573V89.5469H49.5731ZM91.7344 88.6952C91.7344 90.097 90.7592 91.2812 89.6048 91.2812H76.5583C75.404 91.2812 74.4286 90.097 74.4286 88.6952V61.6187C74.4286 60.2168 75.4039 59.0326 76.5583 59.0326H77.7236V61.58C77.7236 62.8197 78.7335 63.8282 79.975 63.8282H86.188C87.4295 63.8282 88.4394 62.8197 88.4394 61.58V59.0326H89.6048C90.7591 59.0326 91.7344 60.2168 91.7344 61.6187V88.6952ZM79.9893 61.5626V59.0327H86.1737V61.5626H79.9893ZM91.7344 57.3765C91.1031 56.9888 90.377 56.7671 89.6048 56.7671H76.5583C74.1347 56.7671 72.163 58.9435 72.163 61.6188V73.2174H38.2656V44.5769C38.2656 44.2013 38.5829 43.884 38.9585 43.884H43.9035C43.9913 44.2785 44.1857 44.6532 44.491 44.9584L44.67 45.1381C44.2655 45.8904 43.9382 46.6792 43.6915 47.4971H43.4422C42.2239 47.4971 41.2327 48.4884 41.2327 49.7067V52.7152C41.2327 53.9319 42.2239 54.9216 43.4422 54.9216H43.6913C43.9383 55.7413 44.2656 56.5313 44.6701 57.2838L44.4927 57.4619C43.6328 58.322 43.6328 59.7212 44.4927 60.581L46.6205 62.7089C47.4815 63.5698 48.8821 63.5697 49.7428 62.7089L49.9191 62.5326C50.6738 62.9386 51.4633 63.266 52.28 63.5115V63.7625C52.28 64.979 53.2697 65.9689 54.4864 65.9689H57.4981C58.7147 65.9689 59.7046 64.9792 59.7046 63.7625V63.5115C60.5212 63.266 61.3107 62.9387 62.0653 62.5326L62.2417 62.709C63.1024 63.5696 64.503 63.5698 65.3641 62.709L67.4918 60.5812C68.3518 59.7213 68.3518 58.3221 67.4934 57.4636L67.3144 57.2838C67.7188 56.5313 68.0461 55.7414 68.2931 54.9217H68.5422C69.7606 54.9217 70.7519 53.932 70.7519 52.7153V49.7068C70.7519 48.4885 69.7606 47.4973 68.5422 47.4973H68.293C68.0462 46.6794 67.7191 45.8905 67.3144 45.1382L67.4918 44.9601C67.7977 44.6542 67.9927 44.2789 68.0805 43.884H91.0417C91.4172 43.884 91.7345 44.2013 91.7345 44.5769V57.3765H91.7344Z" fill="#272727"/>
<path d="M55.9906 59.1032C60.3443 59.1032 63.8861 55.5627 63.8861 51.2109C63.8861 46.8591 60.3441 43.3186 55.9906 43.3186C51.6388 43.3186 48.0983 46.8591 48.0983 51.2109C48.0983 55.5627 51.6388 59.1032 55.9906 59.1032ZM55.9906 45.5842C59.0949 45.5842 61.6205 48.1084 61.6205 51.2109C61.6205 54.3135 59.0949 56.8376 55.9906 56.8376C52.8881 56.8376 50.364 54.3135 50.364 51.2109C50.364 48.1084 52.8881 45.5842 55.9906 45.5842Z" fill="#272727"/>
<path d="M92.8672 87.8127H88.1744C87.5489 87.8127 87.0416 87.3056 87.0416 86.6799C87.0416 86.0543 87.5489 85.5471 88.1744 85.5471H92.8672C93.4927 85.5471 94 86.0543 94 86.6799C94 87.3056 93.4927 87.8127 92.8672 87.8127ZM77.9886 87.8127H73.2958C72.6703 87.8127 72.163 87.3056 72.163 86.6799C72.163 86.0543 72.6703 85.5471 73.2958 85.5471H77.9886C78.6141 85.5471 79.1214 86.0543 79.1214 86.6799C79.1214 87.3056 78.6142 87.8127 77.9886 87.8127Z" fill="#272727"/>
<path d="M83.08 87.8127C82.4545 87.8127 81.9455 87.3056 81.9455 86.6799C81.9455 86.0543 82.4511 85.5471 83.0766 85.5471H83.0799C83.7054 85.5471 84.2127 86.0543 84.2127 86.6799C84.2127 87.3056 83.7056 87.8127 83.08 87.8127Z" fill="#272727"/>
</g>
<defs>
<clipPath id="clip0">
<rect width="58" height="58" fill="white" transform="translate(36 36)"/>
</clipPath>
</defs>
</svg>
