<svg width="130" height="129" viewBox="0 0 130 129" fill="none" xmlns="http://www.w3.org/2000/svg">
<rect width="130" height="129" rx="40" fill="#FFF8E4"/>
<path d="M39 38.5703C37.8954 38.5703 37 39.4657 37 40.5703V77.5859C37 78.6905 37.8954 79.5859 39 79.5859H91C92.1046 79.5859 93 78.6905 93 77.5859V40.5703C93 39.4657 92.1046 38.5703 91 38.5703H39ZM89.7188 74.3047C89.7188 75.4093 88.8233 76.3047 87.7188 76.3047H42.2812C41.1767 76.3047 40.2812 75.4093 40.2812 74.3047V43.8516C40.2812 42.747 41.1767 41.8516 42.2812 41.8516H87.7188C88.8233 41.8516 89.7188 42.747 89.7188 43.8516V74.3047Z" fill="#272727"/>
<path d="M85.9975 84.5078C85.43 83.5274 84.3705 82.8672 83.1562 82.8672C81.942 82.8672 80.8825 83.5274 80.315 84.5078H37V87.7891H80.315C80.8825 88.7695 81.9419 89.4297 83.1562 89.4297C84.3706 89.4297 85.43 88.7695 85.9975 87.7891H93V84.5078H85.9975Z" fill="#272727"/>
<path d="M58.5469 48.5656V69.5908L76.5686 59.0781L58.5469 48.5656ZM61.8281 54.2782L70.0564 59.0781L61.8281 63.8781V54.2782Z" fill="#272727"/>
</svg>
